<svg xmlns="http://www.w3.org/2000/svg" xmlns:xlink="http://www.w3.org/1999/xlink" version="1.1" id="Layer_1" x="0px" y="0px" width="100%" viewBox="-3 -3 198 198" enable-background="new 0 0 192 192" xml:space="preserve"><g id="deeditor_bgCarrier" stroke-width="0">
    <rect id="dee_c_e" x="-3" y="-3" width="198" height="198" rx="0" fill="#ffffff" strokewidth="0"/>
  </g>
<path fill="#000000" opacity="1.000000" stroke="none" d=" M73.100838,132.124390   C67.360039,136.714554 61.918327,141.112122 56.432003,145.453278   C55.130501,146.483124 53.752716,147.467361 52.280785,148.219696   C49.777943,149.498978 47.107082,151.172623 44.348499,149.117935   C41.542572,147.027985 42.340935,143.910156 43.162743,141.282318   C46.542717,130.474365 50.161289,119.741112 53.681171,108.976799   C54.913322,105.208710 56.114010,101.430336 57.754837,96.334312   C48.636288,102.829269 39.059662,106.424431 34.406361,116.507004   C30.437170,125.107262 25.453175,133.240540 20.882021,141.560577   C19.881147,143.382278 19.063944,145.460388 15.756473,146.426056   C15.949217,139.873962 19.983952,135.716797 22.400299,130.972641   C24.930101,126.005730 27.786001,121.204910 30.907671,115.598160   C24.276789,116.768082 21.102358,124.562332 14.543067,122.929710   C14.278419,122.372993 14.013771,121.816284 13.749124,121.259567   C18.112814,118.387299 22.288765,115.161430 26.882498,112.722435   C34.509945,108.672737 38.968777,102.237839 42.674503,94.742622   C47.469364,85.044518 52.307510,75.331779 58.311863,66.289001   C59.964729,63.799717 61.804539,61.408665 63.783428,59.171432   C64.978661,57.820168 66.674011,56.441669 68.596817,57.254093   C70.948730,58.247822 70.519928,60.703632 70.138084,62.548820   C68.891144,68.574265 67.373238,74.544258 65.921951,80.526451   C65.428871,82.558914 64.824142,84.564293 63.865974,88.055901   C90.231743,72.593239 116.012108,59.318192 144.194794,49.656208   C143.844971,53.074562 141.588730,53.492317 139.761978,54.247250   C115.872513,64.119965 92.566147,75.139183 70.291992,88.343422   C64.477669,91.790184 60.873043,95.930832 59.017471,102.536873   C55.462299,115.193680 51.067566,127.614243 47.049320,140.141846   C46.452095,142.003799 45.612659,143.916000 47.149315,146.033920   C51.106190,145.940720 53.648441,143.047836 56.432316,140.882935   C69.319756,130.860794 81.831993,120.337608 94.966423,110.655640   C119.285583,92.728912 144.608810,76.404045 172.888245,65.214005   C174.775421,64.467262 174.786667,64.495697 177.940201,65.328674   C139.813339,82.454575 105.531952,105.532211 73.100838,132.124390  M65.304939,62.593021   C56.329964,73.933853 50.449272,86.986282 43.457558,100.457283   C54.212658,95.773827 62.012051,90.030052 63.367149,78.431564   C63.806114,74.674408 65.342278,71.056236 66.171112,67.328804   C66.527107,65.727844 67.764511,63.900105 65.304939,62.593021  z"/>
</svg>